HIERARCHY
ROOT mixamorig:Hips
{
	OFFSET -0.000008 104.274872 1.554316
	CHANNELS 6 Xposition Yposition Zposition Xrotation Yrotation Zrotation
	JOINT mixamorig:Spine
	{
		OFFSET -0.000005 10.181595 0.131519
		CHANNELS 6 Xposition Yposition Zposition Xrotation Yrotation Zrotation
		JOINT mixamorig:Spine1
		{
			OFFSET -0.000000 9.893959 -1.470707
			CHANNELS 6 Xposition Yposition Zposition Xrotation Yrotation Zrotation
			JOINT mixamorig:Spine2
			{
				OFFSET -0.000000 9.220757 -1.370641
				CHANNELS 6 Xposition Yposition Zposition Xrotation Yrotation Zrotation
				JOINT mixamorig:Neck
				{
					OFFSET 0.000001 16.740417 -2.049036
					CHANNELS 6 Xposition Yposition Zposition Xrotation Yrotation Zrotation
					JOINT mixamorig:Head
					{
						OFFSET 0.000000 9.617874 1.685006
						CHANNELS 6 Xposition Yposition Zposition Xrotation Yrotation Zrotation
						JOINT mixamorig:HeadTop_End
						{
							OFFSET 0.000002 22.037354 7.501101
							CHANNELS 6 Xposition Yposition Zposition Xrotation Yrotation Zrotation
							End Site
							{
								OFFSET 0.000168 2310.654297 -282.823242
							}
						}
					}
				}
				JOINT mixamorig:RightShoulder
				{
					OFFSET -4.569970 11.014908 -2.160885
					CHANNELS 6 Xposition Yposition Zposition Xrotation Yrotation Zrotation
					JOINT mixamorig:RightArm
					{
						OFFSET -10.592851 -0.524811 -2.232101
						CHANNELS 6 Xposition Yposition Zposition Xrotation Yrotation Zrotation
						JOINT mixamorig:RightForeArm
						{
							OFFSET -27.841511 0.000031 -0.000004
							CHANNELS 6 Xposition Yposition Zposition Xrotation Yrotation Zrotation
							JOINT mixamorig:RightHand
							{
								OFFSET -28.328831 -0.000015 0.000015
								CHANNELS 6 Xposition Yposition Zposition Xrotation Yrotation Zrotation
								JOINT mixamorig:RightHandThumb1
								{
									OFFSET -2.464806 -1.573990 2.681852
									CHANNELS 6 Xposition Yposition Zposition Xrotation Yrotation Zrotation
									JOINT mixamorig:RightHandThumb2
									{
										OFFSET -3.215179 -1.872803 1.924282
										CHANNELS 6 Xposition Yposition Zposition Xrotation Yrotation Zrotation
										JOINT mixamorig:RightHandThumb3
										{
											OFFSET -2.654831 -1.527969 1.512609
											CHANNELS 6 Xposition Yposition Zposition Xrotation Yrotation Zrotation
											JOINT mixamorig:RightHandThumb4
											{
												OFFSET -2.018814 -1.152008 1.108052
												CHANNELS 6 Xposition Yposition Zposition Xrotation Yrotation Zrotation
												End Site
												{
													OFFSET -188.809540 -114.533607 132.431396
												}
											}
										}
									}
								}
								JOINT mixamorig:RightHandIndex1
								{
									OFFSET -9.108284 -0.517868 2.259835
									CHANNELS 6 Xposition Yposition Zposition Xrotation Yrotation Zrotation
									JOINT mixamorig:RightHandIndex2
									{
										OFFSET -3.699989 0.000000 0.001215
										CHANNELS 6 Xposition Yposition Zposition Xrotation Yrotation Zrotation
										JOINT mixamorig:RightHandIndex3
										{
											OFFSET -2.850006 0.000031 -0.000522
											CHANNELS 6 Xposition Yposition Zposition Xrotation Yrotation Zrotation
											JOINT mixamorig:RightHandIndex4
											{
												OFFSET -2.772186 -0.000015 -0.000020
												CHANNELS 6 Xposition Yposition Zposition Xrotation Yrotation Zrotation
												End Site
												{
													OFFSET -277.218445 0.000000 -0.050231
												}
											}
										}
									}
								}
								JOINT mixamorig:RightHandMiddle1
								{
									OFFSET -9.532516 -0.000031 -0.000023
									CHANNELS 6 Xposition Yposition Zposition Xrotation Yrotation Zrotation
									JOINT mixamorig:RightHandMiddle2
									{
										OFFSET -3.700005 -0.000015 0.003713
										CHANNELS 6 Xposition Yposition Zposition Xrotation Yrotation Zrotation
										JOINT mixamorig:RightHandMiddle3
										{
											OFFSET -2.949974 0.000015 -0.002054
											CHANNELS 6 Xposition Yposition Zposition Xrotation Yrotation Zrotation
											JOINT mixamorig:RightHandMiddle4
											{
												OFFSET -2.946640 0.000000 -0.000156
												CHANNELS 6 Xposition Yposition Zposition Xrotation Yrotation Zrotation
												End Site
												{
													OFFSET -294.664337 0.000000 -0.113670
												}
											}
										}
									}
								}
								JOINT mixamorig:RightHandRing1
								{
									OFFSET -9.103600 -0.043076 -1.865134
									CHANNELS 6 Xposition Yposition Zposition Xrotation Yrotation Zrotation
									JOINT mixamorig:RightHandRing2
									{
										OFFSET -3.379288 0.000000 -0.001055
										CHANNELS 6 Xposition Yposition Zposition Xrotation Yrotation Zrotation
										JOINT mixamorig:RightHandRing3
										{
											OFFSET -2.889687 -0.000015 0.000379
											CHANNELS 6 Xposition Yposition Zposition Xrotation Yrotation Zrotation
											JOINT mixamorig:RightHandRing4
											{
												OFFSET -2.638809 -0.000015 0.000941
												CHANNELS 6 Xposition Yposition Zposition Xrotation Yrotation Zrotation
												End Site
												{
													OFFSET -263.880371 0.000000 0.516020
												}
											}
										}
									}
								}
								JOINT mixamorig:RightHandPinky1
								{
									OFFSET -8.076683 -0.486710 -3.806280
									CHANNELS 6 Xposition Yposition Zposition Xrotation Yrotation Zrotation
									JOINT mixamorig:RightHandPinky2
									{
										OFFSET -3.600014 -0.000015 -0.003747
										CHANNELS 6 Xposition Yposition Zposition Xrotation Yrotation Zrotation
										JOINT mixamorig:RightHandPinky3
										{
											OFFSET -2.099983 0.000000 -0.005739
											CHANNELS 6 Xposition Yposition Zposition Xrotation Yrotation Zrotation
											JOINT mixamorig:RightHandPinky4
											{
												OFFSET -2.115768 -0.000031 -0.003680
												CHANNELS 6 Xposition Yposition Zposition Xrotation Yrotation Zrotation
												End Site
												{
													OFFSET -211.577087 0.000000 -0.350686
												}
											}
										}
									}
								}
							}
						}
					}
				}
				JOINT mixamorig:LeftShoulder
				{
					OFFSET 4.570447 11.014725 -2.160855
					CHANNELS 6 Xposition Yposition Zposition Xrotation Yrotation Zrotation
					JOINT mixamorig:LeftArm
					{
						OFFSET 10.592371 -0.524597 -2.232119
						CHANNELS 6 Xposition Yposition Zposition Xrotation Yrotation Zrotation
						JOINT mixamorig:LeftForeArm
						{
							OFFSET 27.841532 -0.000031 0.000026
							CHANNELS 6 Xposition Yposition Zposition Xrotation Yrotation Zrotation
							JOINT mixamorig:LeftHand
							{
								OFFSET 28.328846 -0.000061 0.000022
								CHANNELS 6 Xposition Yposition Zposition Xrotation Yrotation Zrotation
								JOINT mixamorig:LeftHandThumb1
								{
									OFFSET 2.466141 -1.576172 2.681732
									CHANNELS 6 Xposition Yposition Zposition Xrotation Yrotation Zrotation
									JOINT mixamorig:LeftHandThumb2
									{
										OFFSET 3.217812 -1.872070 1.916482
										CHANNELS 6 Xposition Yposition Zposition Xrotation Yrotation Zrotation
										JOINT mixamorig:LeftHandThumb3
										{
											OFFSET 2.656029 -1.528778 1.514513
											CHANNELS 6 Xposition Yposition Zposition Xrotation Yrotation Zrotation
											JOINT mixamorig:LeftHandThumb4
											{
												OFFSET 2.020889 -1.154053 1.115139
												CHANNELS 6 Xposition Yposition Zposition Xrotation Yrotation Zrotation
												End Site
												{
													OFFSET 190.885437 -115.081749 130.048782
												}
											}
										}
									}
								}
								JOINT mixamorig:LeftHandIndex1
								{
									OFFSET 9.109314 -0.518021 2.259871
									CHANNELS 6 Xposition Yposition Zposition Xrotation Yrotation Zrotation
									JOINT mixamorig:LeftHandIndex2
									{
										OFFSET 3.699989 0.000000 -0.000322
										CHANNELS 6 Xposition Yposition Zposition Xrotation Yrotation Zrotation
										JOINT mixamorig:LeftHandIndex3
										{
											OFFSET 2.850006 0.000000 0.000352
											CHANNELS 6 Xposition Yposition Zposition Xrotation Yrotation Zrotation
											JOINT mixamorig:LeftHandIndex4
											{
												OFFSET 2.774864 -0.000031 -0.000027
												CHANNELS 6 Xposition Yposition Zposition Xrotation Yrotation Zrotation
												End Site
												{
													OFFSET 277.486267 0.000000 -0.009857
												}
											}
										}
									}
								}
								JOINT mixamorig:LeftHandMiddle1
								{
									OFFSET 9.533394 0.000061 0.000044
									CHANNELS 6 Xposition Yposition Zposition Xrotation Yrotation Zrotation
									JOINT mixamorig:LeftHandMiddle2
									{
										OFFSET 3.699989 -0.000015 -0.000231
										CHANNELS 6 Xposition Yposition Zposition Xrotation Yrotation Zrotation
										JOINT mixamorig:LeftHandMiddle3
										{
											OFFSET 2.949997 -0.000015 -0.000059
											CHANNELS 6 Xposition Yposition Zposition Xrotation Yrotation Zrotation
											JOINT mixamorig:LeftHandMiddle4
											{
												OFFSET 2.952896 0.000031 0.000063
												CHANNELS 6 Xposition Yposition Zposition Xrotation Yrotation Zrotation
												End Site
												{
													OFFSET 295.289337 0.000000 0.022810
												}
											}
										}
									}
								}
								JOINT mixamorig:LeftHandRing1
								{
									OFFSET 9.104523 -0.042999 -1.865074
									CHANNELS 6 Xposition Yposition Zposition Xrotation Yrotation Zrotation
									JOINT mixamorig:LeftHandRing2
									{
										OFFSET 3.150009 -0.000031 0.000043
										CHANNELS 6 Xposition Yposition Zposition Xrotation Yrotation Zrotation
										JOINT mixamorig:LeftHandRing3
										{
											OFFSET 2.949982 -0.000015 0.000040
											CHANNELS 6 Xposition Yposition Zposition Xrotation Yrotation Zrotation
											JOINT mixamorig:LeftHandRing4
											{
												OFFSET 2.644348 0.000000 0.000057
												CHANNELS 6 Xposition Yposition Zposition Xrotation Yrotation Zrotation
												End Site
												{
													OFFSET 264.434631 0.000000 0.012105
												}
											}
										}
									}
								}
								JOINT mixamorig:LeftHandPinky1
								{
									OFFSET 8.077789 -0.486847 -3.806259
									CHANNELS 6 Xposition Yposition Zposition Xrotation Yrotation Zrotation
									JOINT mixamorig:LeftHandPinky2
									{
										OFFSET 3.599953 0.000031 0.014727
										CHANNELS 6 Xposition Yposition Zposition Xrotation Yrotation Zrotation
										JOINT mixamorig:LeftHandPinky3
										{
											OFFSET 2.100021 0.000015 0.007705
											CHANNELS 6 Xposition Yposition Zposition Xrotation Yrotation Zrotation
											JOINT mixamorig:LeftHandPinky4
											{
												OFFSET 2.125504 0.000031 0.007517
												CHANNELS 6 Xposition Yposition Zposition Xrotation Yrotation Zrotation
												End Site
												{
													OFFSET 212.550781 0.000000 0.625752
												}
											}
										}
									}
								}
							}
						}
					}
				}
			}
		}
	}
	JOINT mixamorig:RightUpLeg
	{
		OFFSET -8.207787 -6.751648 -1.599560
		CHANNELS 6 Xposition Yposition Zposition Xrotation Yrotation Zrotation
		JOINT mixamorig:RightLeg
		{
			OFFSET -0.000002 -44.370117 0.345942
			CHANNELS 6 Xposition Yposition Zposition Xrotation Yrotation Zrotation
			JOINT mixamorig:RightFoot
			{
				OFFSET 0.000003 -44.423679 -3.043532
				CHANNELS 6 Xposition Yposition Zposition Xrotation Yrotation Zrotation
				JOINT mixamorig:RightToeBase
				{
					OFFSET -0.000002 -8.728671 10.710558
					CHANNELS 6 Xposition Yposition Zposition Xrotation Yrotation Zrotation
					JOINT mixamorig:RightToe_End
					{
						OFFSET -0.000001 -0.000679 9.278119
						CHANNELS 6 Xposition Yposition Zposition Xrotation Yrotation Zrotation
						End Site
						{
							OFFSET 0.000000 -0.067690 927.812134
						}
					}
				}
			}
		}
	}
	JOINT mixamorig:LeftUpLeg
	{
		OFFSET 8.207793 -6.751686 -1.599556
		CHANNELS 6 Xposition Yposition Zposition Xrotation Yrotation Zrotation
		JOINT mixamorig:LeftLeg
		{
			OFFSET -0.000004 -44.370014 0.346954
			CHANNELS 6 Xposition Yposition Zposition Xrotation Yrotation Zrotation
			JOINT mixamorig:LeftFoot
			{
				OFFSET -0.000001 -44.423672 -3.044401
				CHANNELS 6 Xposition Yposition Zposition Xrotation Yrotation Zrotation
				JOINT mixamorig:LeftToeBase
				{
					OFFSET -0.000002 -8.728669 10.710558
					CHANNELS 6 Xposition Yposition Zposition Xrotation Yrotation Zrotation
					JOINT mixamorig:LeftToe_End
					{
						OFFSET -0.000003 -0.000679 9.278133
						CHANNELS 6 Xposition Yposition Zposition Xrotation Yrotation Zrotation
						End Site
						{
							OFFSET 0.000000 -0.068021 927.813477
						}
					}
				}
			}
		}
	}
}
MOTION
Frames: 3
Frame Time: 0.033333
0.000006 104.270477 1.554256 0.000010 0.000003 -0.000113 -0.000005 10.181587 0.131522 0.000001 -0.000003 0.000084 -0.000000 9.893967 -1.470711 0.000001 0.000000 -0.000000 -0.000000 9.220802 -1.370642 0.000000 -0.000000 -0.000000 0.000001 16.740433 -2.049030 0.000000 -0.000000 -0.000000 0.000000 9.617859 1.685014 0.000000 0.000000 0.000000 0.000002 22.037384 7.501101 0.000000 -0.000000 0.000000 -4.569968 11.014880 -2.160881 0.000008 0.000001 -0.000038 -10.592871 -0.524778 -2.231890 75.341959 32.479138 -25.348572 -27.841522 0.000012 0.000557 -53.743309 107.209053 69.008782 -28.328814 0.000004 0.000027 -0.000316 -0.000043 0.000004 -2.464445 -1.573885 2.682377 -35.957579 -157.613035 16.807849 -3.215272 -1.872585 1.924665 155.791929 32.082894 5.704326 -2.654950 -1.527864 1.513082 148.985236 26.552350 -36.903048 -2.018817 -1.152008 1.108055 -0.000002 -0.000003 0.000007 -9.108396 -0.517581 2.260150 106.194880 17.020869 -22.602621 -3.700054 0.000300 0.001541 101.588709 13.025727 -15.904869 -2.850087 0.000355 -0.000242 101.107058 10.053162 -12.202693 -2.772154 0.000001 -0.000017 -0.000000 -0.000000 -0.000001 -9.532623 0.000256 0.000263 94.454017 20.162836 -21.915869 -3.700072 0.000329 0.003969 92.204815 12.314760 -12.695533 -2.950035 0.000350 -0.001810 95.122016 10.546788 -11.520399 -2.946622 0.000013 -0.000154 -0.000000 0.000001 -0.000001 -9.103718 -0.042792 -1.864851 95.344188 21.290068 -23.269490 -3.379324 0.000342 -0.000831 91.818568 6.702106 -6.934988 -2.889738 0.000380 0.000614 98.603951 3.088408 -3.640608 -2.638818 -0.000000 0.000942 -0.000003 0.000001 0.000001 -8.076769 -0.486410 -3.805971 95.737751 20.098059 -21.998748 -3.600012 0.000300 -0.003491 95.937643 5.963425 -6.233835 -2.099996 0.000332 -0.005470 97.178798 1.996046 -2.027840 -2.115765 -0.000054 -0.003682 0.000001 -0.000002 -0.000004 4.570446 11.014691 -2.160851 -0.000018 0.000010 -0.000021 10.592420 -0.524462 -2.232372 73.996056 -20.934854 15.850531 27.841820 0.000055 -0.000199 99.313116 -72.696517 81.809916 28.328831 -0.000044 0.000015 0.000024 -0.000091 0.000001 2.465974 -1.576145 2.681905 -40.168605 155.704858 -6.244132 3.217760 -1.871719 1.916376 153.251072 -32.374636 -9.974819 2.656110 -1.528611 1.514441 143.466061 -27.718026 33.931717 2.020864 -1.154068 1.115160 0.000006 0.000000 0.000001 9.109367 -0.517816 2.259734 97.519884 -13.848421 15.759823 3.700023 0.000197 -0.000472 94.038256 -12.091268 12.985654 2.850059 0.000213 0.000198 91.707570 -11.005479 11.335005 2.774888 -0.000015 -0.000025 0.000001 -0.000000 -0.000000 9.533466 0.000264 -0.000080 99.729805 -13.158343 15.568702 3.700049 0.000199 -0.000354 98.580380 -12.585860 14.603701 2.950079 0.000201 -0.000175 99.224754 -16.159019 18.950993 2.952875 -0.000013 0.000063 0.000002 -0.000000 -0.000001 9.104567 -0.042809 -1.865222 97.769083 -13.499418 15.446176 3.150062 0.000233 -0.000063 103.003679 -13.820539 17.329722 2.950050 0.000197 -0.000066 106.182380 -15.118294 20.042437 2.644324 0.000030 0.000057 0.000001 -0.000000 0.000001 8.077832 -0.486712 -3.806408 80.956204 -17.789284 15.725361 3.600003 0.000180 0.014560 82.332125 -14.047653 12.748347 2.100052 0.000198 0.007557 85.943102 -12.762325 12.349194 2.125517 -0.000030 0.007523 0.000002 0.000001 0.000001 -8.207786 -6.751667 -1.599560 -0.077001 -0.000003 0.000080 -0.000002 -44.370110 0.345938 0.153719 -0.000000 -0.000000 0.000000 -44.423679 -3.043532 -0.076700 0.000000 -0.000002 -0.000006 -8.728667 10.710559 -0.000009 -0.000000 -0.000000 -0.000001 -0.000679 9.278123 0.000000 -0.000000 -0.000000 8.207792 -6.751710 -1.599556 -0.074518 -0.000003 0.000081 -0.000002 -44.370014 0.346960 0.148822 0.000002 0.000000 -0.000001 -44.423664 -3.044403 -0.074314 0.000000 -0.000002 -0.000004 -8.728671 10.710558 0.000007 -0.000000 -0.000000 0.000000 -0.000680 9.278137 -0.000000 0.000000 -0.000001 
0.000006 104.270477 1.554256 0.000010 0.000003 -0.000113 -0.000005 10.181587 0.131522 0.000001 -0.000003 0.000084 -0.000000 9.893967 -1.470711 0.000001 0.000000 -0.000000 -0.000000 9.220802 -1.370642 0.000000 -0.000000 -0.000000 0.000001 16.740433 -2.049030 0.000000 -0.000000 -0.000000 0.000000 9.617859 1.685014 0.000000 0.000000 0.000000 0.000002 22.037384 7.501101 0.000000 -0.000000 0.000000 -4.569968 11.014880 -2.160881 0.000008 0.000001 -0.000038 -10.592862 -0.524799 -2.231844 75.494648 40.259194 -31.685094 -27.841536 -0.000001 0.000566 -50.821481 104.447560 63.014458 -28.328812 0.000011 0.000031 -0.000320 -0.000046 0.000006 -2.464428 -1.573794 2.682358 -43.908776 -160.915896 -0.346798 -3.215253 -1.872509 1.924637 150.687251 32.918643 17.274245 -2.654951 -1.527869 1.513040 147.511363 27.767878 -27.459830 -2.018831 -1.151995 1.108062 -0.000003 -0.000002 0.000004 -9.108377 -0.517548 2.260174 106.025983 14.872981 -19.723647 -3.700073 0.000321 0.001541 103.538168 12.677541 -16.022966 -2.850076 0.000365 -0.000222 102.749077 10.831395 -13.531981 -2.772164 -0.000015 -0.000025 -0.000001 -0.000002 0.000000 -9.532598 0.000286 0.000231 91.393730 15.386572 -15.905596 -3.700062 0.000327 0.003967 93.815039 9.759214 -10.329727 -2.950044 0.000344 -0.001786 98.036212 10.838189 -12.455725 -2.946619 0.000014 -0.000155 -0.000001 0.000002 0.000000 -9.103693 -0.042744 -1.864859 92.298873 16.976188 -17.614278 -3.379305 0.000325 -0.000817 93.684924 5.136844 -5.495212 -2.889740 0.000367 0.000655 101.658302 4.594278 -5.691560 -2.638813 -0.000014 0.000942 -0.000001 -0.000001 -0.000002 -8.076756 -0.486390 -3.805994 90.892114 18.515050 -18.645720 -3.600022 0.000299 -0.003501 94.604943 5.748344 -5.858351 -2.100024 0.000332 -0.005462 97.872410 3.018368 -3.222069 -2.115759 -0.000070 -0.003674 -0.000001 0.000000 -0.000004 4.570446 11.014691 -2.160851 -0.000018 0.000010 -0.000021 10.592436 -0.524471 -2.232387 73.017318 -26.202709 19.548616 27.841818 0.000031 -0.000181 101.960381 -75.073628 86.951662 28.328823 -0.000043 0.000018 0.000027 -0.000090 0.000001 2.466117 -1.576146 2.681895 -19.215776 156.017476 -48.525690 3.217821 -1.871768 1.916387 163.551858 -28.574016 14.104643 2.656095 -1.528619 1.514459 146.736547 -26.020135 45.641701 2.020895 -1.154070 1.115149 0.000004 0.000000 0.000001 9.109389 -0.517827 2.259734 98.343140 -17.498526 20.184529 3.700044 0.000185 -0.000456 96.226478 -10.920214 12.185878 2.850041 0.000233 0.000216 95.264145 -8.368415 9.170245 2.774880 -0.000045 -0.000027 0.000000 0.000001 -0.000000 9.533475 0.000262 -0.000069 100.904379 -16.615806 20.046484 3.700044 0.000225 -0.000360 98.911419 -8.631906 10.080889 2.950059 0.000225 -0.000208 99.390065 -10.044142 11.833138 2.952871 -0.000032 0.000062 0.000001 0.000000 0.000001 9.104602 -0.042818 -1.865218 98.759297 -16.248578 18.900940 3.150048 0.000246 -0.000102 102.255814 -10.372211 12.850585 2.950023 0.000220 -0.000074 104.522617 -10.742630 13.855128 2.644325 0.000031 0.000052 -0.000001 -0.000000 0.000000 8.077859 -0.486701 -3.806426 82.125354 -19.688334 17.722929 3.600023 0.000188 0.014576 83.812493 -16.711502 15.493306 2.100046 0.000191 0.007546 85.743313 -13.492752 12.989429 2.125509 -0.000015 0.007517 0.000001 -0.000000 0.000001 -8.207786 -6.751667 -1.599560 -0.077001 -0.000003 0.000080 -0.000002 -44.370110 0.345938 0.153719 -0.000000 -0.000000 0.000000 -44.423679 -3.043532 -0.076700 0.000000 -0.000002 -0.000006 -8.728667 10.710559 -0.000009 -0.000000 -0.000000 -0.000001 -0.000679 9.278123 0.000000 -0.000000 -0.000000 8.207792 -6.751710 -1.599556 -0.074518 -0.000003 0.000081 -0.000002 -44.370014 0.346960 0.148822 0.000002 0.000000 -0.000001 -44.423664 -3.044403 -0.074314 0.000000 -0.000002 -0.000004 -8.728671 10.710558 0.000007 -0.000000 -0.000000 0.000000 -0.000680 9.278137 -0.000000 0.000000 -0.000001 
0.000006 104.270477 1.554256 0.000010 0.000003 -0.000113 -0.000005 10.181587 0.131522 0.000001 -0.000003 0.000084 -0.000000 9.893967 -1.470711 0.000001 0.000000 -0.000000 -0.000000 9.220802 -1.370642 0.000000 -0.000000 -0.000000 0.000001 16.740433 -2.049030 0.000000 -0.000000 -0.000000 0.000000 9.617859 1.685014 0.000000 0.000000 0.000000 0.000002 22.037384 7.501101 0.000000 -0.000000 0.000000 -4.569968 11.014880 -2.160881 0.000008 0.000001 -0.000038 -10.592853 -0.524809 -2.231835 75.762248 42.463194 -33.633911 -27.841524 -0.000007 0.000548 -49.709997 102.990893 60.421424 -28.328825 0.000002 0.000026 -0.000321 -0.000047 0.000012 -2.464421 -1.573817 2.682346 -42.942287 -159.714316 1.668517 -3.215265 -1.872535 1.924639 151.162222 32.716698 15.052972 -2.654963 -1.527849 1.513071 146.371500 27.770403 -28.995249 -2.018834 -1.151982 1.108048 -0.000006 -0.000003 0.000002 -9.108372 -0.517548 2.260144 106.073002 15.169601 -20.129375 -3.700076 0.000309 0.001545 104.178253 13.092534 -16.734344 -2.850085 0.000358 -0.000206 103.719728 11.260889 -14.311119 -2.772170 0.000000 -0.000018 0.000002 0.000000 -0.000001 -9.532584 0.000274 0.000234 91.353821 16.134283 -16.660604 -3.700061 0.000342 0.003965 94.008586 10.327742 -10.972948 -2.950062 0.000340 -0.001801 98.426694 11.322288 -13.100379 -2.946637 0.000002 -0.000159 -0.000002 -0.000001 -0.000001 -9.103692 -0.042736 -1.864889 92.739578 17.618543 -18.420279 -3.379315 0.000343 -0.000825 93.635412 5.515606 -5.894031 -2.889763 0.000381 0.000649 101.653576 5.004025 -6.193846 -2.638820 0.000000 0.000938 0.000000 -0.000003 -0.000005 -8.076756 -0.486389 -3.806016 90.481722 19.547556 -19.554372 -3.600053 0.000289 -0.003496 94.468367 6.441889 -6.590273 -2.100000 0.000332 -0.005465 97.156456 3.552884 -3.785448 -2.115744 -0.000026 -0.003675 0.000000 0.000000 0.000002 4.570446 11.014691 -2.160851 -0.000018 0.000010 -0.000021 10.592443 -0.524464 -2.232395 72.261906 -29.671090 21.888490 27.841827 0.000032 -0.000174 104.927586 -76.979975 91.965588 28.328815 -0.000043 0.000023 0.000027 -0.000091 0.000000 2.466175 -1.576138 2.681874 -5.539079 155.703970 -70.239466 3.217684 -1.871667 1.916380 153.700758 -35.863896 -30.947526 2.656089 -1.528574 1.514440 155.045513 -26.245123 30.636663 2.020890 -1.154076 1.115144 0.000001 0.000003 0.000006 9.109384 -0.517815 2.259737 105.251207 -17.776884 23.125111 3.700056 0.000197 -0.000458 100.827246 -11.567744 13.987969 2.850039 0.000238 0.000206 99.323422 -9.243984 10.874785 2.774866 -0.000046 -0.000030 0.000000 0.000000 -0.000001 9.533454 0.000237 -0.000078 99.280556 -15.380550 18.046056 3.700021 0.000230 -0.000384 98.393834 -7.665760 8.872453 2.950041 0.000221 -0.000202 97.749515 -10.470554 11.984865 2.952868 -0.000015 0.000063 0.000001 0.000002 0.000002 9.104584 -0.042823 -1.865211 95.660016 -14.365186 15.843298 3.150033 0.000249 -0.000094 98.857651 -8.322940 9.716257 2.950015 0.000208 -0.000090 99.909869 -10.136653 12.050126 2.644323 0.000031 0.000060 0.000001 0.000001 0.000001 8.077840 -0.486719 -3.806403 80.124580 -16.875526 14.720598 3.600017 0.000175 0.014573 81.293144 -13.492890 12.038158 2.100063 0.000195 0.007548 83.663520 -12.150999 11.317752 2.125489 0.000001 0.007512 0.000001 -0.000000 -0.000000 -8.207786 -6.751667 -1.599560 -0.077001 -0.000003 0.000080 -0.000002 -44.370110 0.345938 0.153719 -0.000000 -0.000000 0.000000 -44.423679 -3.043532 -0.076700 0.000000 -0.000002 -0.000006 -8.728667 10.710559 -0.000009 -0.000000 -0.000000 -0.000001 -0.000679 9.278123 0.000000 -0.000000 -0.000000 8.207792 -6.751710 -1.599556 -0.074518 -0.000003 0.000081 -0.000002 -44.370014 0.346960 0.148822 0.000002 0.000000 -0.000001 -44.423664 -3.044403 -0.074314 0.000000 -0.000002 -0.000004 -8.728671 10.710558 0.000007 -0.000000 -0.000000 0.000000 -0.000680 9.278137 -0.000000 0.000000 -0.000001 
